<svg width="929" height="887" viewBox="0 0 929 887" fill="none" xmlns="http://www.w3.org/2000/svg">
<path d="M110.219 459.858C110.219 578.675 157.419 692.625 241.435 776.641C325.452 860.658 439.402 907.858 558.219 907.858C677.036 907.858 790.987 860.658 875.003 776.641C959.019 692.625 1006.22 578.675 1006.22 459.858C1006.22 341.041 959.019 227.09 875.003 143.074C790.987 59.0575 677.036 11.8576 558.219 11.8576C439.402 11.8576 325.452 59.0575 241.435 143.074C157.419 227.09 110.219 341.041 110.219 459.858Z" fill="black" fill-opacity="0.25"/>
<path d="M849.722 367.726H261.442C255.501 367.726 249.803 370.086 245.602 374.287C241.402 378.488 239.042 384.186 239.042 390.126V769.638H872.122V390.126C872.122 384.186 869.762 378.488 865.561 374.287C861.36 370.086 855.662 367.726 849.722 367.726Z" fill="white" stroke="#000002" stroke-width="4" stroke-linecap="round" stroke-linejoin="round"/>
<path d="M827.434 412.414H284.357L283.73 769.638H827.434V412.414Z" fill="#1C0E0E"/>
<path d="M827.434 412.414H284.357L283.73 769.638H827.434V412.414Z" stroke="#000002" stroke-width="4" stroke-linecap="round" stroke-linejoin="round"/>
<path opacity="0.15" d="M212.979 859.014C212.979 861.949 222.226 864.854 240.193 867.565C258.159 870.276 284.492 872.739 317.69 874.814C350.887 876.889 390.298 878.535 433.672 879.658C477.047 880.78 523.535 881.358 570.483 881.358C617.431 881.358 663.92 880.78 707.294 879.658C750.669 878.535 790.079 876.889 823.277 874.814C856.474 872.739 882.808 870.276 900.774 867.565C918.74 864.854 927.987 861.949 927.987 859.014C927.987 856.08 918.74 853.175 900.774 850.464C882.808 847.753 856.474 845.29 823.277 843.215C790.079 841.14 750.669 839.494 707.294 838.371C663.92 837.248 617.431 836.67 570.483 836.67C523.535 836.67 477.047 837.248 433.672 838.371C390.298 839.494 350.887 841.14 317.69 843.215C284.492 845.29 258.159 847.753 240.193 850.464C222.226 853.175 212.979 856.08 212.979 859.014Z" fill="#000002"/>
<path d="M927.987 814.326H183.187V780.838C183.187 777.868 184.367 775.019 186.468 772.919C188.568 770.818 191.417 769.638 194.387 769.638H916.787C919.758 769.638 922.606 770.818 924.707 772.919C926.807 775.019 927.987 777.868 927.987 780.838V814.326Z" fill="white" stroke="#000002" stroke-width="4" stroke-linecap="round" stroke-linejoin="round"/>
<path d="M927.987 814.338C858.811 834.094 787.219 844.117 715.277 844.118H395.898C323.955 844.118 252.364 834.095 183.187 814.338H927.987Z" fill="white" stroke="#000002" stroke-width="4" stroke-linecap="round" stroke-linejoin="round"/>
<path d="M680.77 215.72C680.755 202.734 675.59 190.284 666.409 181.1C657.227 171.916 644.778 166.749 631.792 166.731H471.934C458.946 166.746 446.495 171.912 437.311 181.096C428.127 190.28 422.961 202.732 422.946 215.72V339.502H465.573V215.72C465.614 212.56 466.887 209.541 469.121 207.307C471.356 205.072 474.375 203.799 477.534 203.758H626.192C629.351 203.799 632.369 205.073 634.601 207.308C636.834 209.542 638.105 212.561 638.142 215.72V339.502H680.77V215.72Z" fill="#1C0E0E" stroke="#000002" stroke-width="4" stroke-linecap="round" stroke-linejoin="round"/>
<path d="M749.28 735.602H361.872C359.991 735.602 358.13 735.221 356.401 734.481C354.672 733.74 353.111 732.657 351.814 731.295C350.516 729.934 349.509 728.323 348.852 726.56C348.196 724.798 347.904 722.92 347.995 721.042L368.726 307.224C368.904 304.403 370.143 301.753 372.193 299.806C374.243 297.86 376.954 296.761 379.781 296.73H736.579C739.439 296.761 742.179 297.885 744.236 299.872C746.294 301.859 747.513 304.557 747.645 307.414L763.179 721.221C763.246 723.087 762.935 724.947 762.266 726.69C761.597 728.433 760.584 730.023 759.286 731.365C757.989 732.708 756.434 733.775 754.715 734.503C752.995 735.231 751.147 735.604 749.28 735.602Z" fill="white"/>
<path d="M749.28 735.602H361.872C359.991 735.602 358.13 735.221 356.401 734.481C354.672 733.74 353.111 732.657 351.814 731.295C350.516 729.934 349.509 728.323 348.852 726.56C348.196 724.798 347.904 722.92 347.995 721.042L368.726 307.224C368.904 304.403 370.143 301.753 372.193 299.806C374.243 297.86 376.954 296.761 379.781 296.73H736.579C739.439 296.761 742.179 297.885 744.236 299.872C746.294 301.859 747.513 304.557 747.645 307.414L763.179 721.221C763.246 723.087 762.935 724.947 762.266 726.69C761.597 728.433 760.584 730.023 759.286 731.365C757.989 732.708 756.434 733.775 754.715 734.503C752.995 735.231 751.147 735.604 749.28 735.602V735.602Z" stroke="#000002" stroke-width="4" stroke-linecap="round" stroke-linejoin="round"/>
<path d="M475.518 -30.0192V-6.32C475.518 -3.94366 476.462 -1.66464 478.143 0.0156841C479.823 1.69601 482.102 2.64 484.478 2.64H613.458C615.834 2.64 618.113 1.69601 619.793 0.0156841C621.474 -1.66464 622.418 -3.94366 622.418 -6.32V-30.0192H475.518Z" fill="white" stroke="#000002" stroke-width="4" stroke-linecap="round" stroke-linejoin="round"/>
<path d="M638.635 212.965V197.05H656.152C663.512 197.042 670.797 198.528 677.567 201.418C677.759 199.853 677.857 198.279 677.858 196.702V146.37C677.858 47.3504 611.453 65.3824 611.453 2.67358H486.327V32.6C486.327 64.6432 464.565 74.4656 464.565 130.522V220.278C464.565 226.05 466.858 231.585 470.939 235.666C475.02 239.747 480.555 242.04 486.327 242.04C492.098 242.04 497.633 239.747 501.714 235.666C505.795 231.585 508.088 226.05 508.088 220.278V231.165C508.088 236.936 510.381 242.471 514.462 246.553C518.543 250.634 524.078 252.926 529.85 252.926C535.621 252.926 541.156 250.634 545.238 246.553C549.319 242.471 551.611 236.936 551.611 231.165V242.04C551.611 247.812 553.904 253.347 557.985 257.428C562.066 261.509 567.601 263.802 573.373 263.802C579.144 263.802 584.68 261.509 588.761 257.428C592.842 253.347 595.135 247.812 595.135 242.04V248.838C595.069 251.737 595.583 254.619 596.647 257.317C597.71 260.014 599.302 262.471 601.329 264.544C603.356 266.618 605.777 268.265 608.449 269.39C611.121 270.514 613.991 271.094 616.891 271.094C619.79 271.094 622.66 270.514 625.332 269.39C628.005 268.265 630.425 266.618 632.452 264.544C634.479 262.471 636.071 260.014 637.134 257.317C638.198 254.619 638.712 251.737 638.647 248.838V212.998L638.635 212.965Z" fill="white"/>
<path d="M638.635 212.965V197.05H656.152C663.512 197.042 670.797 198.528 677.567 201.418C677.759 199.853 677.857 198.279 677.858 196.702V146.37C677.858 47.3504 611.453 65.3824 611.453 2.67358H486.327V32.6C486.327 64.6432 464.565 74.4656 464.565 130.522V220.278C464.565 226.05 466.858 231.585 470.939 235.666C475.02 239.747 480.555 242.04 486.327 242.04C492.098 242.04 497.633 239.747 501.714 235.666C505.795 231.585 508.088 226.05 508.088 220.278V231.165C508.088 236.936 510.381 242.472 514.462 246.553C518.543 250.634 524.078 252.926 529.85 252.926C535.621 252.926 541.156 250.634 545.238 246.553C549.319 242.472 551.611 236.936 551.611 231.165V242.04C551.611 247.812 553.904 253.347 557.985 257.428C562.066 261.509 567.601 263.802 573.373 263.802C579.144 263.802 584.68 261.509 588.761 257.428C592.842 253.347 595.135 247.812 595.135 242.04V248.838C595.069 251.737 595.583 254.619 596.647 257.317C597.71 260.014 599.302 262.471 601.329 264.544C603.356 266.618 605.777 268.265 608.449 269.39C611.121 270.514 613.991 271.094 616.891 271.094C619.79 271.094 622.66 270.514 625.332 269.39C628.005 268.265 630.425 266.618 632.452 264.544C634.479 262.471 636.071 260.014 637.134 257.317C638.198 254.619 638.712 251.737 638.647 248.838V212.998L638.635 212.965Z" stroke="#000002" stroke-width="4" stroke-linecap="round" stroke-linejoin="round"/>
<path d="M638.736 149.472L638.691 221.163" stroke="#000002" stroke-width="4" stroke-linecap="round" stroke-linejoin="round"/>
<path d="M551.611 207.589V231.165V207.589Z" fill="#FFCEBF"/>
<path d="M551.611 207.589V231.165" stroke="#000002" stroke-width="4" stroke-linecap="round" stroke-linejoin="round"/>
<path d="M595.134 209.403V242.04V209.403Z" fill="#FFCEBF"/>
<path d="M595.134 209.403V242.04" stroke="#000002" stroke-width="4" stroke-linecap="round" stroke-linejoin="round"/>
<path d="M508.088 207.589V220.278V207.589Z" fill="#FFCEBF"/>
<path d="M508.088 207.589V220.278" stroke="#000002" stroke-width="4" stroke-linecap="round" stroke-linejoin="round"/>
<path d="M460.387 476.657C460.387 481.113 462.157 485.386 465.308 488.537C468.458 491.688 472.732 493.457 477.187 493.457C481.643 493.457 485.916 491.688 489.067 488.537C492.217 485.386 493.987 481.113 493.987 476.657C493.987 472.202 492.217 467.929 489.067 464.778C485.916 461.628 481.643 459.857 477.187 459.857C472.732 459.857 468.458 461.628 465.308 464.778C462.157 467.929 460.387 472.202 460.387 476.657Z" fill="#000002"/>
<path d="M617.187 476.657C617.187 481.113 618.957 485.386 622.108 488.537C625.259 491.688 629.532 493.457 633.987 493.457C638.443 493.457 642.716 491.688 645.867 488.537C649.017 485.386 650.787 481.113 650.787 476.657C650.787 472.202 649.017 467.929 645.867 464.778C642.716 461.628 638.443 459.857 633.987 459.857C629.532 459.857 625.259 461.628 622.108 464.778C618.957 467.929 617.187 472.202 617.187 476.657Z" fill="#000002"/>
<path d="M482.877 543.634C523.04 601.795 588.157 601.795 628.287 543.634H482.877Z" fill="#1C0E0E" stroke="#000002" stroke-width="4" stroke-linecap="round" stroke-linejoin="round"/>
<path d="M638.747 296.707H680.77V215.72C680.738 203.96 676.47 192.606 668.749 183.736C661.027 174.867 650.368 169.076 638.725 167.426V215.451C638.725 215.541 638.725 215.619 638.725 215.72L638.747 296.707Z" fill="#1C0E0E" stroke="#000002" stroke-width="4" stroke-linecap="round" stroke-linejoin="round"/>
</svg>
