<svg width="274" height="315" viewBox="0 0 274 315" fill="none" xmlns="http://www.w3.org/2000/svg">
<path d="M0.364014 162.592C0.364014 205.027 17.2211 245.723 47.2269 275.729C77.2327 305.735 117.929 322.592 160.364 322.592C202.799 322.592 243.495 305.735 273.501 275.729C303.507 245.723 320.364 205.027 320.364 162.592C320.364 120.157 303.507 79.4607 273.501 49.4549C243.495 19.4491 202.799 2.59198 160.364 2.59198C117.929 2.59198 77.2327 19.4491 47.2269 49.4549C17.2211 79.4607 0.364014 120.157 0.364014 162.592Z" fill="black" fill-opacity="0.25"/>
<path d="M264.472 129.688H54.3721C52.2503 129.688 50.2155 130.531 48.7152 132.031C47.2149 133.531 46.3721 135.566 46.3721 137.688V273.228H272.472V137.688C272.472 135.566 271.629 133.531 270.129 132.031C268.629 130.531 266.594 129.688 264.472 129.688Z" fill="white" stroke="#000002" stroke-width="4" stroke-linecap="round" stroke-linejoin="round"/>
<path d="M256.512 145.648H62.556L62.332 273.228H256.512V145.648Z" fill="#1C0E0E"/>
<path d="M256.512 145.648H62.556L62.332 273.228H256.512V145.648Z" stroke="#000002" stroke-width="4" stroke-linecap="round" stroke-linejoin="round"/>
<path opacity="0.15" d="M37.064 305.148C37.064 306.196 40.3665 307.234 46.783 308.202C53.1995 309.17 62.6044 310.05 74.4606 310.791C86.3168 311.532 100.392 312.12 115.883 312.521C131.374 312.922 147.977 313.128 164.744 313.128C181.511 313.128 198.114 312.922 213.605 312.521C229.096 312.12 243.171 311.532 255.027 310.791C266.884 310.05 276.288 309.17 282.705 308.202C289.121 307.234 292.424 306.196 292.424 305.148C292.424 304.1 289.121 303.062 282.705 302.094C276.288 301.126 266.884 300.246 255.027 299.505C243.171 298.764 229.096 298.176 213.605 297.775C198.114 297.374 181.511 297.168 164.744 297.168C147.977 297.168 131.374 297.374 115.883 297.775C100.392 298.176 86.3168 298.764 74.4606 299.505C62.6044 300.246 53.1995 301.126 46.783 302.094C40.3665 303.062 37.064 304.1 37.064 305.148Z" fill="#000002"/>
<path d="M292.424 289.188H26.4241V277.228C26.4241 276.167 26.8455 275.15 27.5956 274.4C28.3458 273.649 29.3632 273.228 30.4241 273.228H288.424C289.485 273.228 290.502 273.649 291.253 274.4C292.003 275.15 292.424 276.167 292.424 277.228V289.188Z" fill="white" stroke="#000002" stroke-width="4" stroke-linecap="round" stroke-linejoin="round"/>
<path d="M292.424 289.192C267.718 296.248 242.15 299.828 216.456 299.828H102.392C76.6983 299.828 51.1299 296.248 26.4241 289.192H292.424Z" fill="white" stroke="#000002" stroke-width="4" stroke-linecap="round" stroke-linejoin="round"/>
<path d="M204.132 75.4C204.127 70.7621 202.282 66.3156 199.003 63.0357C195.724 59.7558 191.278 57.9103 186.64 57.904H129.548C124.909 57.9093 120.462 59.7543 117.182 63.0343C113.902 66.3143 112.057 70.7614 112.052 75.4V119.608H127.276V75.4C127.291 74.2715 127.745 73.1933 128.543 72.3953C129.341 71.5972 130.42 71.1425 131.548 71.128H184.64C185.768 71.1425 186.846 71.5974 187.643 72.3955C188.441 73.1937 188.895 74.2719 188.908 75.4V119.608H204.132V75.4Z" fill="#1C0E0E" stroke="#000002" stroke-width="4" stroke-linecap="round" stroke-linejoin="round"/>
<path d="M228.6 261.072H90.2401C89.5684 261.072 88.9036 260.936 88.2861 260.672C87.6686 260.407 87.1113 260.02 86.6478 259.534C86.1844 259.048 85.8246 258.472 85.5902 257.843C85.3557 257.213 85.2516 256.543 85.2841 255.872L92.6881 108.08C92.7517 107.072 93.194 106.126 93.9262 105.431C94.6585 104.736 95.6265 104.343 96.6361 104.332H224.064C225.086 104.343 226.064 104.745 226.799 105.454C227.534 106.164 227.969 107.128 228.016 108.148L233.564 255.936C233.588 256.602 233.477 257.267 233.238 257.889C232.999 258.512 232.637 259.08 232.174 259.559C231.71 260.038 231.155 260.42 230.541 260.68C229.927 260.939 229.267 261.073 228.6 261.072Z" fill="white"/>
<path d="M228.6 261.072H90.2401C89.5684 261.072 88.9036 260.936 88.2861 260.672C87.6686 260.407 87.1113 260.02 86.6478 259.534C86.1844 259.048 85.8246 258.472 85.5902 257.843C85.3557 257.213 85.2516 256.543 85.2841 255.872L92.6881 108.08C92.7517 107.072 93.194 106.126 93.9262 105.431C94.6585 104.736 95.6265 104.343 96.6361 104.332H224.064C225.086 104.343 226.064 104.745 226.799 105.454C227.534 106.164 227.969 107.128 228.016 108.148L233.564 255.936C233.588 256.602 233.477 257.267 233.238 257.889C232.999 258.512 232.637 259.08 232.174 259.559C231.71 260.038 231.155 260.42 230.541 260.68C229.927 260.939 229.267 261.073 228.6 261.072V261.072Z" stroke="#000002" stroke-width="4" stroke-linecap="round" stroke-linejoin="round"/>
<path d="M130.828 -12.364V-3.90002C130.828 -3.05132 131.165 -2.23739 131.765 -1.63727C132.365 -1.03715 133.179 -0.700015 134.028 -0.700015H180.092C180.941 -0.700015 181.755 -1.03715 182.355 -1.63727C182.955 -2.23739 183.292 -3.05132 183.292 -3.90002V-12.364H130.828Z" fill="white" stroke="#000002" stroke-width="4" stroke-linecap="round" stroke-linejoin="round"/>
<path d="M189.084 74.416V68.732H195.34C197.969 68.7294 200.57 69.2601 202.988 70.292C203.057 69.7333 203.092 69.1709 203.092 68.608V50.632C203.092 15.268 179.376 21.708 179.376 -0.688019H134.688V9.99998C134.688 21.444 126.916 24.952 126.916 44.972V77.028C126.916 79.0893 127.735 81.0661 129.192 82.5236C130.65 83.9812 132.627 84.8 134.688 84.8C136.749 84.8 138.726 83.9812 140.184 82.5236C141.641 81.0661 142.46 79.0893 142.46 77.028V80.916C142.46 82.9773 143.279 84.9541 144.736 86.4116C146.194 87.8692 148.171 88.688 150.232 88.688C152.293 88.688 154.27 87.8692 155.728 86.4116C157.185 84.9541 158.004 82.9773 158.004 80.916V84.8C158.004 86.8613 158.823 88.8381 160.28 90.2956C161.738 91.7532 163.715 92.572 165.776 92.572C167.837 92.572 169.814 91.7532 171.272 90.2956C172.729 88.8381 173.548 86.8613 173.548 84.8V87.228C173.525 88.2632 173.708 89.2927 174.088 90.2559C174.468 91.2192 175.037 92.0968 175.76 92.8372C176.484 93.5777 177.349 94.166 178.303 94.5677C179.258 94.9694 180.283 95.1763 181.318 95.1763C182.353 95.1763 183.379 94.9694 184.333 94.5677C185.287 94.166 186.152 93.5777 186.876 92.8372C187.599 92.0968 188.168 91.2192 188.548 90.2559C188.928 89.2927 189.112 88.2632 189.088 87.228V74.428L189.084 74.416Z" fill="white"/>
<path d="M189.084 74.416V68.732H195.34C197.969 68.7294 200.57 69.2601 202.988 70.292C203.057 69.7333 203.092 69.1709 203.092 68.608V50.632C203.092 15.268 179.376 21.708 179.376 -0.688019H134.688V9.99998C134.688 21.444 126.916 24.952 126.916 44.972V77.028C126.916 79.0893 127.735 81.0661 129.192 82.5236C130.65 83.9812 132.627 84.8 134.688 84.8C136.749 84.8 138.726 83.9812 140.184 82.5236C141.641 81.0661 142.46 79.0893 142.46 77.028V80.916C142.46 82.9773 143.279 84.9541 144.736 86.4116C146.194 87.8692 148.171 88.688 150.232 88.688C152.293 88.688 154.27 87.8692 155.728 86.4116C157.185 84.9541 158.004 82.9773 158.004 80.916V84.8C158.004 86.8613 158.823 88.8381 160.28 90.2956C161.738 91.7532 163.715 92.572 165.776 92.572C167.837 92.572 169.814 91.7532 171.272 90.2956C172.729 88.8381 173.548 86.8613 173.548 84.8V87.228C173.525 88.2632 173.708 89.2927 174.088 90.2559C174.468 91.2192 175.037 92.0968 175.76 92.8372C176.484 93.5777 177.349 94.166 178.303 94.5677C179.258 94.9694 180.283 95.1763 181.318 95.1763C182.353 95.1763 183.379 94.9694 184.333 94.5677C185.287 94.166 186.152 93.5777 186.876 92.8372C187.599 92.0968 188.168 91.2192 188.548 90.2559C188.928 89.2927 189.112 88.2632 189.088 87.228V74.428L189.084 74.416Z" stroke="#000002" stroke-width="4" stroke-linecap="round" stroke-linejoin="round"/>
<path d="M189.12 51.74L189.104 77.344" stroke="#000002" stroke-width="4" stroke-linecap="round" stroke-linejoin="round"/>
<path d="M158.004 72.496V80.916V72.496Z" fill="#FFCEBF"/>
<path d="M158.004 72.496V80.916" stroke="#000002" stroke-width="4" stroke-linecap="round" stroke-linejoin="round"/>
<path d="M173.548 73.144V84.8V73.144Z" fill="#FFCEBF"/>
<path d="M173.548 73.144V84.8" stroke="#000002" stroke-width="4" stroke-linecap="round" stroke-linejoin="round"/>
<path d="M142.46 72.496V77.028V72.496Z" fill="#FFCEBF"/>
<path d="M142.46 72.496V77.028" stroke="#000002" stroke-width="4" stroke-linecap="round" stroke-linejoin="round"/>
<path d="M125.424 168.592C125.424 170.183 126.056 171.709 127.181 172.835C128.307 173.96 129.833 174.592 131.424 174.592C133.015 174.592 134.542 173.96 135.667 172.835C136.792 171.709 137.424 170.183 137.424 168.592C137.424 167.001 136.792 165.475 135.667 164.349C134.542 163.224 133.015 162.592 131.424 162.592C129.833 162.592 128.307 163.224 127.181 164.349C126.056 165.475 125.424 167.001 125.424 168.592Z" fill="#000002"/>
<path d="M181.424 168.592C181.424 170.183 182.056 171.709 183.181 172.835C184.307 173.96 185.833 174.592 187.424 174.592C189.015 174.592 190.542 173.96 191.667 172.835C192.792 171.709 193.424 170.183 193.424 168.592C193.424 167.001 192.792 165.475 191.667 164.349C190.542 163.224 189.015 162.592 187.424 162.592C185.833 162.592 184.307 163.224 183.181 164.349C182.056 165.475 181.424 167.001 181.424 168.592Z" fill="#000002"/>
<path d="M133.456 192.512C147.8 213.284 171.056 213.284 185.388 192.512H133.456Z" fill="#1C0E0E" stroke="#000002" stroke-width="4" stroke-linecap="round" stroke-linejoin="round"/>
<path d="M189.124 104.324H204.132V75.4C204.121 71.2001 202.597 67.1449 199.839 63.9772C197.081 60.8096 193.274 58.7415 189.116 58.152V75.304C189.116 75.336 189.116 75.364 189.116 75.4L189.124 104.324Z" fill="#1C0E0E" stroke="#000002" stroke-width="4" stroke-linecap="round" stroke-linejoin="round"/>
</svg>
